<svg width="48" height="48" viewBox="0 0 48 48" fill="none" xmlns="http://www.w3.org/2000/svg">
<g clip-path="url(#clip0_2409_13978)">
<rect width="48" height="48" fill="#0444C0"/>
<g opacity="0.8" filter="url(#filter0_d_2409_13978)">
<path d="M19.3004 51.0058C17.5442 51.0058 15.8785 50.895 14.4809 50.7862L14.0955 50.7562L13.7107 50.7027C13.5425 50.6789 13.3137 50.6544 13.093 50.6303C11.7483 50.4841 9.24752 50.2118 6.48705 48.9157L6.05828 48.7136L5.65846 48.4898C0.353029 45.5165 -1.63263 41.0419 -2.70183 38.6363C-2.7698 38.4836 -2.8525 38.2975 -2.93004 38.1262C-3.46993 37.0219 -3.81109 36.0263 -4.10055 35.1149L-4.1649 34.9113L-4.2184 34.7136C-4.98858 31.9773 -5.1832 29.6143 -4.83041 27.2776C-4.47685 24.9314 -3.60743 22.7968 -2.09732 20.5625L-1.31422 19.284C-1.15527 19.0258 -1.04311 18.7416 -0.982629 18.4445C-0.385613 15.4861 0.969168 13.3906 1.63494 12.3898C1.81818 11.1782 2.1203 9.98778 2.53691 8.83561L2.59895 8.66096L2.66537 8.49068C2.67622 8.46071 2.69018 8.41834 2.71577 8.34108C3.0148 7.44058 3.71597 5.33313 5.51115 3.12025L6.18544 2.30374L6.8724 1.68334C8.63706 0.0800104 10.7396 -1.10652 13.0243 -1.78868C14.3 -2.16903 15.6149 -2.40158 16.9436 -2.48168L17.072 -2.49125L17.2656 -2.50029C17.4954 -2.51114 17.7244 -2.51632 17.9477 -2.51632C18.7768 -2.51787 19.6046 -2.4481 20.4215 -2.30805C20.9323 -2.222 21.4566 -2.28196 21.9345 -2.48091C23.351 -3.07186 24.8402 -3.47159 26.3623 -3.66952C26.4894 -3.6876 26.6003 -3.70156 26.6876 -3.71293C26.9278 -3.7429 27.3092 -3.78786 27.7703 -3.83179C28.5741 -3.90853 29.8066 -4 31.1428 -4C33.7521 -4 35.9982 -3.66203 38.009 -2.96695L38.1801 -2.90752L38.3473 -2.84473C42.7846 -1.16828 45.0434 1.17379 46.668 3.2399L46.7451 3.33834L46.9686 3.53704C48.4361 4.68508 49.6841 6.08841 50.6525 7.68011L50.9554 8.1783L51.211 8.70076C53.3815 13.1301 52.6917 17.2199 52.4317 18.7566L52.4177 18.8388C52.2309 19.9724 51.9334 21.085 51.5297 22.1606C51.3811 23.1978 51.1369 24.2191 50.7999 25.211C50.2238 26.9745 49.3737 28.6362 48.281 30.1357C47.6519 31.0253 46.9415 31.8548 46.1589 32.6131C45.8821 32.8806 45.7027 33.2328 45.6492 33.6137C45.6153 33.8483 45.5768 34.0803 45.5329 34.3101C44.8966 37.7221 43.404 40.0967 42.7949 41.0424L40.953 43.6873C38.7347 46.4503 36.1026 48.2728 32.9178 49.2521L32.1461 49.494L31.3126 49.6389C30.3591 49.8071 29.3928 49.8908 28.4247 49.8887C28.2911 49.8887 28.1566 49.8887 28.0076 49.8849H27.9646L27.8002 49.8952L27.624 49.9017H27.6191C27.2501 49.9141 26.8841 49.9743 26.5305 50.081C24.4733 50.7102 22.1461 51.0058 19.3004 51.0058Z" stroke="url(#paint0_linear_2409_13978)" stroke-width="0.25" stroke-miterlimit="10"/>
<path d="M19.3005 49.1871C17.6177 49.1871 16.0037 49.0799 14.6471 48.9729L14.3256 48.9481L14.0041 48.9036C13.8035 48.8758 13.5588 48.8501 13.3223 48.8233C12.0163 48.6814 9.83297 48.4439 7.39556 47.3011L7.0376 47.1329L6.70472 46.9458C2.02293 44.3205 0.290804 40.4224 -0.744541 38.0928C-0.818456 37.9266 -0.90917 37.7225 -0.993682 37.5372C-1.47594 36.5481 -1.79229 35.6345 -2.05927 34.7939L-2.11276 34.6243L-2.15929 34.4595C-2.84417 32.0257 -3.02121 29.949 -2.71572 27.9227C-2.41024 25.8961 -1.64058 24.0235 -0.298198 22.0497L0.705101 20.4118C0.88265 20.1216 1.00438 19.8006 1.06409 19.466C1.56367 16.6834 2.87839 14.7106 3.47593 13.8127L3.55139 13.699L3.5793 13.654C3.59171 13.6266 3.60334 13.6005 3.61471 13.5721C3.65115 13.4537 3.68708 13.339 3.72197 13.2297C3.8791 12.0881 4.15642 10.9668 4.54978 9.88351L4.60353 9.73782L4.66091 9.59153C4.679 9.54506 4.69606 9.49468 4.74646 9.34349C5.03101 8.48615 5.62337 6.70635 7.17278 4.79658L7.73489 4.11623L8.30552 3.60022C9.83585 2.21006 11.6587 1.18141 13.6397 0.589947C14.7644 0.256104 15.9236 0.0524913 17.0946 -0.0170164L17.2019 -0.0255481L17.3626 -0.0330393C17.5583 -0.0423413 17.7534 -0.0464767 17.9436 -0.0464767C18.7838 -0.0480268 19.6218 -0.289881 20.4449 -0.120892C21.0799 0.0103715 21.7402 -0.0599075 22.3334 -0.321917C23.4416 -0.810533 24.9336 -1.00562 26.6417 -1.21828C26.7634 -1.23611 26.8694 -1.24929 26.9519 -1.25963C27.1764 -1.28805 27.5357 -1.33042 27.9701 -1.37151C28.7258 -1.44386 29.8888 -1.53223 31.1392 -1.53223C33.5064 -1.53223 35.523 -1.23276 37.305 -0.616747L37.4474 -0.567394L37.5867 -0.513645C41.5201 0.97211 43.4639 2.96095 44.9784 4.88934C45.0623 4.99657 45.1487 5.10639 45.1807 5.14437L45.2167 5.17641L45.504 5.43222L45.5425 5.47175C46.851 6.4738 47.9614 7.71072 48.8171 9.11898L49.069 9.53422L49.2833 9.96935C51.1504 13.7793 50.5652 17.2456 50.3156 18.726L50.3021 18.8048C50.1249 19.8802 49.8351 20.9342 49.4371 21.9489C49.3117 22.9365 49.0869 23.9088 48.7661 24.8515C48.2568 26.4116 47.5049 27.8824 46.5383 29.209C45.8839 30.1392 45.1272 30.9927 44.2826 31.7542C43.8908 32.1061 43.6434 32.5908 43.5887 33.1146C43.5478 33.5004 43.4928 33.8753 43.423 34.2435C42.8619 37.2553 41.5506 39.3385 40.9502 40.2712L39.4581 42.4397C37.4753 44.9869 35.1258 46.6528 32.2795 47.53L31.6365 47.7313L30.9397 47.852C30.1083 47.9987 29.2652 48.0716 28.4208 48.0701C28.2981 48.0701 28.1727 48.0701 28.0378 48.0667H27.9996H27.9197C27.9197 48.0667 27.8931 48.0667 27.8383 48.0706L27.691 48.0797L27.5427 48.0851L27.2462 48.0962C26.8544 48.1101 26.4665 48.1775 26.0928 48.2966C24.1978 48.9016 22.008 49.1871 19.3005 49.1871Z" stroke="url(#paint1_linear_2409_13978)" stroke-width="0.25" stroke-miterlimit="10"/>
<path d="M19.3007 47.0447C17.6929 47.0447 16.1289 46.9403 14.8127 46.8379L14.556 46.8181L14.2999 46.7827C14.0678 46.7507 13.8068 46.7222 13.5543 46.6943C12.3062 46.5587 10.4214 46.3535 8.30782 45.3623L8.02092 45.228L7.75291 45.0784C3.69294 42.8026 2.20196 39.4459 1.21468 37.2245C1.13069 37.0343 1.03531 36.8198 0.946922 36.6211C0.518156 35.7494 0.231801 34.9179 -0.0119165 34.1478L-0.0548194 34.013L-0.0922949 33.8804C-0.692154 31.7502 -0.850582 29.959 -0.592392 28.2448C-0.330326 26.5066 0.352497 24.8865 1.55506 23.1449L1.69824 22.9383L1.85305 22.7395C1.95048 22.6152 2.0443 22.4926 2.13657 22.3723L2.74004 21.2659C2.93802 20.9044 3.07164 20.5112 3.13495 20.1039C3.51875 17.6215 4.71485 15.8281 5.2669 15.0009L5.26947 14.9965C5.30126 14.9493 5.34184 14.8893 5.36278 14.8562L5.48063 14.6681C5.52689 14.5674 5.58789 14.4335 5.64139 14.2929C5.69515 14.1252 5.75898 13.918 5.82851 13.7036C5.95928 12.6462 6.20997 11.607 6.57568 10.6062L6.61729 10.4894L6.66304 10.3713C6.70155 10.2734 6.72997 10.1881 6.78579 10.0204C7.04992 9.22694 7.53968 7.75407 8.84251 6.14713L9.29322 5.60217L9.74841 5.19134C11.0435 4.01462 12.5864 3.14357 14.2635 2.64307C15.2368 2.35419 16.2403 2.179 17.254 2.12112L17.3395 2.11466L17.4698 2.10871C17.6306 2.10122 17.7913 2.09761 17.9521 2.09761C18.8238 2.09631 19.6919 2.20664 20.5353 2.42602C21.2656 2.61077 22.0379 2.52912 22.7132 2.19605C23.7943 1.67152 25.2403 1.11494 26.9342 0.906932C27.0505 0.890395 27.1487 0.877472 27.2285 0.867394C27.4392 0.841038 27.7747 0.80151 28.1819 0.760167C28.8909 0.692209 29.981 0.611328 31.1472 0.611328C33.2721 0.611328 35.0593 0.872048 36.6136 1.40899L36.7278 1.44878L36.8392 1.49038C40.4518 2.85573 42.0692 4.64381 43.3014 6.21198C43.5731 6.55746 43.6141 6.61121 43.8008 6.77684L44.0308 6.98147L44.1202 7.07295C44.7147 7.53341 45.9302 8.48118 46.994 10.2344L47.1958 10.5664L47.3664 10.9142C48.9302 14.1048 48.4435 16.9864 48.2099 18.3717L48.197 18.4482C48.0298 19.4636 47.7468 20.4569 47.3534 21.408L47.3428 21.4954C47.239 22.4052 47.0378 23.3013 46.743 24.1684C46.3008 25.5263 45.6469 26.8059 44.8056 27.9598C44.1019 28.9683 43.256 29.8697 42.2943 30.6363C42.0655 30.8176 41.8782 31.0458 41.7449 31.3055C41.6114 31.5655 41.5355 31.8507 41.5215 32.1424C41.4955 32.7148 41.4295 33.285 41.3244 33.8483C40.8387 36.4599 39.6985 38.2705 39.1164 39.1743L37.9599 40.8831C36.2164 43.2099 34.1498 44.716 31.6524 45.4817L31.1386 45.6424L30.5827 45.739C29.8723 45.8647 29.1517 45.9269 28.4301 45.9254C28.3179 45.9254 28.2039 45.9254 28.0807 45.9222H28.0522H27.929C27.908 45.9222 27.8442 45.9222 27.7145 45.9303L27.5965 45.9377L27.4826 45.9421L26.8866 45.9641C26.4693 45.9784 26.056 46.053 25.6598 46.1853C23.9241 46.7698 21.8761 47.0447 19.3007 47.0447Z" stroke="url(#paint2_linear_2409_13978)" stroke-width="0.25" stroke-miterlimit="10"/>
<path d="M19.3002 44.9016C17.7637 44.9016 16.2531 44.8003 14.9787 44.7013L14.7861 44.6863L14.5938 44.66C14.3307 44.6235 14.0536 44.593 13.7851 44.5641C12.612 44.436 11.0079 44.2618 9.2173 43.4223L9.00304 43.321L8.803 43.2091C5.36462 41.2802 4.09977 38.4346 3.17582 36.355C3.07993 36.1408 2.98017 35.9152 2.8817 35.6992C2.48886 34.9096 2.23868 34.1511 2.03063 33.5023L1.99858 33.4011L1.97067 33.3021C0.965309 29.7298 1.34315 27.2239 3.31848 24.3648L3.42574 24.2093L3.54204 24.0605C3.67332 23.8928 3.79609 23.7315 3.91705 23.5783C4.09925 23.3393 4.28378 23.0959 4.4846 22.8457C4.60942 22.6899 4.70996 22.516 4.7831 22.3303L5.00976 21.7517C5.10591 21.5055 5.16612 21.2471 5.18887 20.9837C5.38555 18.6921 6.50023 17.0216 7.05228 16.1937L7.05538 16.1893C7.0957 16.1283 7.15669 16.0374 7.17711 16.0045L7.30634 15.7984L7.34588 15.7446C7.41463 15.6059 7.54902 15.3128 7.66739 15.0058C7.73123 14.7958 7.83202 14.4733 7.93049 14.18C7.93049 14.1689 7.93049 14.1565 7.93488 14.1436C8.04059 13.1834 8.26179 12.2395 8.59415 11.3323L8.62573 11.2445L8.6601 11.1561C8.72004 11.0034 8.76245 10.8757 8.82086 10.6994C9.05654 9.99122 9.45096 8.80544 10.508 7.50239L10.8461 7.0931L11.1854 6.78664C13.6815 4.52209 16.4748 4.32675 17.4083 4.26396L17.4726 4.25905L17.5714 4.2544C17.6983 4.24846 17.8255 4.24588 17.9497 4.24588C19.058 4.24976 20.1546 4.47377 21.1755 4.90529C21.3564 4.98048 21.5515 5.01459 21.7472 5.00529C21.9428 4.99599 22.1338 4.94353 22.3067 4.8518H22.3121C23.2612 4.30142 24.9997 3.30377 27.2165 3.03685C27.3235 3.02084 27.4222 3.00869 27.4946 2.99939C27.6897 2.97484 28.0008 2.93841 28.3836 2.90146C29.046 2.83816 30.0633 2.7627 31.1446 2.7627C33.0274 2.7627 34.5859 2.98543 35.9096 3.44304L35.9954 3.4725L36.0788 3.50428C39.1748 4.67376 40.51 6.14144 41.6117 7.54425C41.9082 7.91918 42.0405 8.09333 42.3724 8.38583L42.5448 8.53958L42.683 8.6817L42.7903 8.76641C43.3149 9.17242 44.2908 9.9284 45.1569 11.3527L45.3086 11.6018L45.4366 11.8628C46.696 14.4346 46.3021 16.7671 46.0904 18.0208L46.0783 18.0952C45.9288 19.0068 45.6694 19.8967 45.3053 20.7452L45.2748 20.8181C45.2717 20.8339 45.2673 20.8569 45.2608 20.8905C45.2442 20.9768 45.2347 21.0455 45.2233 21.1328L45.2104 21.2313C45.1246 22 44.9556 22.7571 44.7062 23.4891C44.3311 24.6442 43.7755 25.7325 43.0604 26.7136C42.353 27.7177 41.5598 28.5356 40.6697 29.1828C40.279 29.468 39.9597 29.8404 39.7375 30.2702C39.5152 30.6998 39.3958 31.1756 39.3888 31.6592C39.3814 32.2626 39.3222 32.8641 39.2123 33.4574C38.8019 35.6698 37.8576 37.1679 37.2698 38.0808L36.4293 39.3405C34.9244 41.4425 33.1492 42.7849 31.0123 43.4388L30.8993 43.4742C30.7179 43.5314 30.5329 43.5761 30.3457 43.6083L30.2101 43.6318C29.6205 43.7362 29.023 43.7882 28.4244 43.7866C28.3231 43.7866 28.2202 43.7866 28.1086 43.7841H28.0905C28.0396 43.7841 27.9833 43.7841 27.9233 43.7841C27.8814 43.7841 27.771 43.7841 27.5715 43.7964L27.4831 43.8016L27.3969 43.805C27.1102 43.8155 26.7538 43.828 26.4359 43.8419C26.0005 43.86 25.5702 43.9442 25.16 44.092C23.622 44.6414 21.7396 44.9016 19.3002 44.9016Z" stroke="url(#paint3_linear_2409_13978)" stroke-width="0.25" stroke-miterlimit="10"/>
<path d="M19.3002 42.7582C17.8366 42.7582 16.3784 42.6603 15.1448 42.5644L15.0161 42.5546L14.8879 42.5365C14.5928 42.4957 14.2984 42.4637 14.0148 42.4332C12.9367 42.3159 11.5948 42.1696 10.1273 41.4815L9.98386 41.414L9.85078 41.3396C7.03419 39.7606 5.98152 37.3901 5.13484 35.4852C5.03069 35.2506 4.92033 35.0085 4.81307 34.7726C4.48148 34.1108 4.2569 33.4331 4.07262 32.853L4.05117 32.7858L4.03231 32.7199C3.20268 29.773 3.47664 27.9025 5.08057 25.5808L5.1519 25.4774L5.22969 25.3785C5.36952 25.1994 5.49745 25.0322 5.61969 24.871C6.03838 24.3222 6.44079 23.794 7.04271 23.1517C7.17452 23.0105 7.25361 22.8281 7.26601 22.6357L7.31176 21.9421L7.29392 21.715L7.30194 21.4794C7.36474 19.5778 8.3202 18.1471 8.83143 17.3786C8.89061 17.2897 8.95215 17.1983 8.98856 17.1399L9.0749 17.0027L9.15474 16.8955C9.25014 16.7396 9.50081 16.2082 9.69052 15.698C9.75588 15.4836 9.88252 15.0748 9.99393 14.7506C10.0268 14.6472 10.0298 14.6221 10.0567 14.4002C10.1439 13.5979 10.3287 12.809 10.607 12.0514L10.6279 11.9922L10.6509 11.9328C10.7303 11.7302 10.7855 11.5648 10.8494 11.3729C11.0513 10.7654 11.3557 9.84965 12.1672 8.84936L12.3933 8.576L12.6172 8.37341C14.3661 6.78586 16.2711 6.48535 17.5569 6.39905L17.6004 6.39517H17.6667C17.76 6.39104 17.8528 6.38896 17.9438 6.38896C19.042 6.38896 20.3554 6.91557 21.0452 7.23391C21.2101 7.30935 21.3884 7.35174 21.5698 7.35845C21.7513 7.36491 21.9322 7.33545 22.102 7.27189C22.5312 7.11634 22.9494 6.93236 23.3539 6.721C24.2313 6.21197 25.6869 5.37142 27.4945 5.16082C27.5943 5.14584 27.6837 5.13447 27.7577 5.12491C27.9393 5.10243 28.2261 5.07142 28.5813 5.03421C29.1977 4.9753 30.1416 4.90527 31.1389 4.90527C32.7788 4.90527 34.1085 5.08951 35.2032 5.4678L35.2601 5.48769L35.3136 5.50863C37.8994 6.48535 38.9285 7.60781 39.9184 8.86747C40.2399 9.27365 40.4671 9.56411 40.9393 9.98629L41.054 10.0886L41.161 10.1959C41.2574 10.2912 41.361 10.3788 41.4714 10.4579C41.9152 10.8013 42.659 11.3767 43.3188 12.4627L43.4196 12.6289L43.5051 12.8031C44.4614 14.7539 44.1541 16.5735 43.9703 17.6605L43.9582 17.7344C43.836 18.4851 43.622 19.2176 43.3208 19.9158V19.9213C43.2376 20.1018 43.18 20.2931 43.15 20.4897C43.1242 20.6269 43.1082 20.7373 43.0927 20.8594L43.0797 20.9589C43.011 21.586 42.8738 22.2039 42.6708 22.801C42.3649 23.7542 41.9072 24.6516 41.3156 25.4589C40.442 26.7045 39.4322 27.581 38.2157 28.1378C37.9201 28.2728 37.6676 28.4864 37.4862 28.7559C37.3044 29.0252 37.2008 29.3393 37.1866 29.6637C37.1809 29.7967 37.1786 29.906 37.1824 29.967C37.2424 30.9042 37.3104 31.9662 37.1016 33.0602C36.7666 34.8698 36 36.086 35.4239 36.9791C35.4239 36.9791 32.7808 40.6569 30.3757 41.3911L30.1168 41.4719L29.8387 41.5205C29.3706 41.6037 28.8961 41.6448 28.4205 41.6433C28.3306 41.6433 28.2383 41.6433 28.1394 41.6406H28.1306C28.067 41.6406 27.9977 41.6406 27.9194 41.6406C27.825 41.6406 27.6713 41.6406 27.4322 41.6572L27.3738 41.661H27.3162C26.3959 41.6941 25.5262 41.7254 25.2843 41.7725C25.1551 41.7926 25.0289 41.8296 24.9092 41.8828C23.548 42.4792 21.7629 42.7582 19.3002 42.7582Z" stroke="url(#paint4_linear_2409_13978)" stroke-width="0.25" stroke-miterlimit="10"/>
<path d="M19.3004 40.6156C17.9102 40.6156 16.5035 40.5208 15.3105 40.428L15.2467 40.4231L15.1828 40.414C14.8564 40.3691 14.5467 40.3352 14.2467 40.3027C13.2315 40.1921 12.1817 40.0781 11.0376 39.5417L10.9657 39.5074L10.8992 39.4704C8.70198 38.2381 7.88576 36.3976 7.09413 34.6154C6.98171 34.3627 6.8654 34.1012 6.74522 33.8413C6.47721 33.3119 6.28751 32.7439 6.1172 32.206L6.10634 32.1729L6.09678 32.1391C5.43721 29.7933 5.60494 28.5957 6.84704 26.7991L6.88297 26.7456L6.92149 26.6958C7.06725 26.51 7.19983 26.3363 7.32725 26.1686C7.92426 25.3857 8.44039 24.709 9.59696 23.6418L9.60001 23.6384C9.68509 23.5576 9.74452 23.4537 9.77169 23.3395C9.79878 23.2256 9.79209 23.1059 9.75281 22.9955L9.54447 22.4013C9.50257 22.2139 9.47311 22.024 9.4566 21.8328V21.8264L9.44365 21.6656L9.4478 21.5478C9.49021 20.2571 10.1694 19.2396 10.6183 18.5659C10.6886 18.4587 10.7556 18.3608 10.8075 18.2771L10.8504 18.2086L10.8987 18.1437C11.1373 17.8223 11.5247 16.9324 11.7283 16.381C11.7818 16.2112 11.9191 15.7552 12.0334 15.4247C12.1145 15.1759 12.1672 14.919 12.1902 14.6583C12.2577 14.0134 12.4058 13.379 12.6309 12.7707L12.6414 12.7407L12.6534 12.7113C12.7523 12.4568 12.8221 12.2478 12.8896 12.0452C13.0692 11.5056 13.2723 10.8938 13.8376 10.1966L13.9512 10.0594L14.0621 9.95944C15.3046 8.83106 16.6663 8.60364 17.7166 8.53412H17.7386H17.773C17.8319 8.53412 17.8908 8.53025 17.9492 8.53025C18.9714 8.53025 19.757 8.94941 20.2768 9.22691L20.3981 9.29125L20.4161 9.30081C20.5587 9.37802 20.6841 9.44549 20.8004 9.5028C21.1235 9.66483 21.4946 9.70284 21.8438 9.61006C22.5555 9.41857 23.6661 8.99766 24.413 8.58709L24.4285 8.57805C25.2142 8.1225 26.3976 7.43674 27.7845 7.28454C27.8718 7.27059 27.9556 7.26052 28.0344 7.25018C28.1951 7.23002 28.4629 7.19669 28.7904 7.16723C29.3608 7.11374 30.2315 7.04785 31.1443 7.04785C32.542 7.04785 33.6423 7.19359 34.5083 7.49255L34.5367 7.50262L34.5657 7.51348C36.6402 8.29718 37.3969 9.11762 38.2398 10.1925C38.5829 10.6292 38.9071 11.0416 39.5219 11.5888L39.579 11.6423L39.6328 11.6958C39.799 11.8635 39.9781 12.0178 40.1686 12.1573C40.5373 12.4428 41.0426 12.834 41.4967 13.5808L41.5471 13.664L41.59 13.7514C42.2421 15.0828 42.025 16.3696 41.8666 17.3089L41.8541 17.383C41.7593 17.9755 41.5893 18.5536 41.3487 19.1034C41.2083 19.4199 41.1085 19.753 41.0519 20.0946C41.0144 20.2928 40.9925 20.4478 40.9741 20.5912L40.9612 20.6931C40.9098 21.1788 40.8046 21.6571 40.6477 22.1194C40.4099 22.8697 40.0505 23.5757 39.5834 24.209C38.7957 25.3397 37.9221 26.0368 36.7617 26.4058C36.2057 26.5818 35.7274 26.9441 35.4074 27.4314L35.3154 27.573L35.2136 27.6893C34.9187 28.0246 35.0019 29.3243 35.0528 30.1003C35.1063 30.9517 35.1637 31.8321 35.0045 32.661C34.743 34.078 34.1359 35.0346 33.5923 35.8756C33.5923 35.8756 31.5741 38.7867 29.7531 39.3397L29.6205 39.3815L29.4812 39.4055C29.1343 39.4678 28.7826 39.4983 28.4303 39.4968C28.351 39.4968 28.2696 39.4968 28.1833 39.4968C28.1068 39.4968 28.0225 39.4968 27.9292 39.4968C27.8054 39.4968 27.6077 39.4968 27.3066 39.5177H27.2776H27.2487C26.0273 39.5621 25.2904 39.5882 24.8831 39.6675C24.6089 39.7161 24.3414 39.796 24.0856 39.906C22.9949 40.3895 21.4718 40.6156 19.3004 40.6156Z" stroke="url(#paint5_linear_2409_13978)" stroke-width="0.25" stroke-miterlimit="10"/>
</g>
</g>
<mask id="mask0_2409_13978" style="mask-type:luminance" maskUnits="userSpaceOnUse" x="0" y="0" width="48" height="48">
<path d="M47.9572 23.9734C47.9572 10.7332 37.2216 0 23.9786 0C10.7356 0 0 10.7332 0 23.9734C0 37.2135 10.7356 47.9468 23.9786 47.9468C37.2216 47.9468 47.9572 37.2135 47.9572 23.9734Z" fill="white"/>
</mask>
<g mask="url(#mask0_2409_13978)">
<path d="M40.2843 16.4907C40.184 17.0776 40.0664 17.362 39.9289 17.6915L39.9287 17.6923C39.7801 18.0491 39.6116 18.4542 39.4591 19.2581C39.3984 19.5798 39.3681 19.816 39.3418 20.024L39.34 20.0369L39.3384 20.0491C39.2961 20.3821 39.2676 20.6067 39.1322 21.0061C39.0224 21.3322 38.8386 21.8766 38.3961 22.463C38.0387 22.9374 37.4404 23.7314 36.642 23.8265C36.5728 23.8312 36.4277 23.8384 36.3686 23.8081C34.1038 22.6518 32.1579 21.7976 31.4844 21.6059C30.7011 21.3839 30.8013 19.6762 30.89 18.1695C30.9297 17.4961 30.9672 16.8595 30.9358 16.3142C30.8256 14.4123 30.4889 12.3304 28.832 11.3154C27.8428 10.7097 26.5669 10.532 25.3478 10.5293C25.5737 10.4219 25.8257 10.2759 26.1002 10.1162L26.1087 10.1113C26.8264 9.69581 27.7176 9.17983 28.603 9.08908C28.8924 9.06038 29.177 9.02711 29.4577 8.99579C31.2426 8.79371 32.7846 8.62008 34.4111 9.17695C35.1484 9.4299 36.6609 10.2736 37.0514 11.0567C37.3264 11.6097 37.7903 12.0407 38.7158 12.9009C39.1975 13.349 39.5149 13.6096 39.7473 13.8004L39.7579 13.8092C40.084 14.0774 40.1484 14.1334 40.2456 14.3316C40.5453 14.9427 40.436 15.5918 40.2843 16.4907Z" fill="white"/>
<path d="M32.0455 24.3097C32.1527 24.3466 32.1928 24.4768 32.1305 24.5713C31.8886 24.9383 31.6115 25.4416 31.2794 26.0571C31.1236 26.3473 30.976 26.6212 30.8522 26.8349C30.4134 27.5884 30.3776 28.2225 30.3498 28.7315C30.3196 29.2637 30.2927 29.5082 29.9745 29.7204C29.7119 29.8963 29.4429 29.955 27.5782 30.239C27.2528 30.2894 27.1083 30.3524 26.9814 30.4077C26.9468 30.4227 26.9124 30.4377 26.8731 30.4524C26.7654 30.4927 26.6599 30.4009 26.6664 30.2865C26.6811 30.0178 26.6907 29.6821 26.6917 29.2599V29.179C26.7015 28.8136 26.6863 28.5172 26.6731 28.2783C26.6485 27.8023 26.6454 27.6018 26.7723 27.3945C26.9282 27.1442 27.0497 27.0677 27.2494 26.9411C27.5283 26.7659 27.9108 26.5249 28.4768 25.747C28.7776 25.3352 28.8443 25.112 28.8859 24.9189C28.904 24.8389 28.9105 24.8088 29.142 24.6334C29.3868 24.4476 30.1329 23.8825 31.0879 24.043C31.352 24.0877 31.6885 24.1864 32.0455 24.3097Z" fill="white"/>
<path d="M24.6259 32.905C24.5853 32.958 24.5378 32.9826 24.4693 32.9859C24.2745 32.9942 24.1375 32.9458 24.0467 32.8368C23.8545 32.6027 23.8803 32.1325 23.9253 31.8575L24.7138 31.6475C24.7755 32.0647 24.8045 32.6727 24.6259 32.905Z" fill="white"/>
<path d="M24.6898 30.06C24.6766 30.175 24.6622 30.3044 24.6627 30.4398C24.6637 30.4902 24.6642 30.5411 24.6658 30.5905C24.6673 30.7194 24.6725 30.924 24.6547 31.0171C24.4084 31.1067 24.198 31.1067 23.9214 31.1018C23.9174 31.022 23.9225 30.9029 23.9256 30.8225C23.9272 30.7605 23.9305 30.6988 23.9312 30.6398C23.9321 30.5745 23.9312 30.5101 23.9312 30.4457C23.9302 30.2941 23.9282 30.0456 23.9654 29.9724C24.0396 29.9616 24.1155 29.9452 24.197 29.9266C24.36 29.8915 24.5728 29.8465 24.7081 29.8669C24.7061 29.9197 24.6978 29.998 24.6898 30.06Z" fill="white"/>
<path d="M23.2309 32.6627C23.1929 33.0668 23.0681 33.5665 22.6889 33.6425C22.5184 33.6776 22.4359 33.6262 22.384 33.5774C22.1278 33.3402 22.087 32.6234 22.1227 32.1107C22.2933 32.1138 22.5168 32.0756 22.7815 32.0244C22.943 31.9923 23.1038 31.9567 23.2317 31.9272C23.2464 32.1169 23.257 32.3877 23.2309 32.6627Z" fill="white"/>
<path d="M23.0517 31.2114L22.1963 31.5114C22.2397 31.1794 22.2976 30.7121 22.318 30.4019C22.3328 30.1833 22.3922 30.1163 22.4093 30.1019C22.415 30.0969 22.4263 30.0866 22.4581 30.0866C22.463 30.0866 22.468 30.0874 22.4734 30.0874L22.4915 30.09L23.0318 30.0605C23.0549 30.3145 23.0549 30.8724 23.0517 31.2114Z" fill="white"/>
<path d="M21.6695 30.9456C21.6212 31.0743 21.5641 31.4388 21.5284 31.6954L20.4569 31.6629C20.5174 31.3311 20.6012 30.9933 20.6931 30.7244C20.7861 30.457 20.8865 30.2564 20.9787 30.2001C21.0862 30.1355 21.3229 30.121 21.468 30.2448C21.7036 30.4459 21.7688 30.6758 21.6695 30.9456Z" fill="white"/>
<path d="M21.2695 34.2248C21.1865 34.3383 21.0942 34.3958 20.98 34.408C20.8635 34.4212 20.7728 34.3951 20.7004 34.3274C20.3639 34.0168 20.3912 32.9993 20.4037 32.5101C20.848 32.4089 21.3276 32.3228 21.5551 32.3096C21.5892 32.7191 21.599 33.7765 21.2695 34.2248Z" fill="white"/>
<path d="M19.871 31.634C19.8188 31.7735 19.7682 31.9053 19.7299 32.0221C19.6054 32.0611 19.2244 32.027 18.8354 31.9412L19.103 30.2552C19.5423 30.1386 20.052 30.1012 20.1752 30.2317C20.3375 30.404 20.0114 31.2666 19.871 31.634Z" fill="white"/>
<path d="M19.3862 34.4813C19.1783 34.7373 18.8666 34.857 18.4319 34.8524C18.1311 34.8475 18.0236 34.7333 17.9699 34.6477C17.7284 34.2655 17.9647 33.3646 18.2014 32.7891L19.6528 32.8762C19.6676 32.9772 19.6797 33.1002 19.6854 33.234C19.7014 33.6436 19.65 34.1536 19.3862 34.4813Z" fill="white"/>
<path d="M31.3807 22.2463C30.074 21.8762 30.1864 19.966 30.2952 18.1198C30.3337 17.4666 30.3702 16.8487 30.3405 16.3438C30.2402 14.6157 29.9495 12.7335 28.5592 11.8816C27.0639 10.9674 24.6176 11.1757 23.1083 11.3677C23.107 11.3679 23.1057 11.3687 23.1044 11.369C23.1037 11.369 23.1032 11.369 23.1026 11.3692C22.5498 11.5367 22.0327 11.6452 21.6318 11.624C20.7412 11.5781 20.0483 11.2031 19.4381 10.8741C18.962 10.6163 18.5467 10.3936 18.1557 10.3936C18.1349 10.3936 18.1133 10.3936 18.0918 10.3943C16.9218 10.4703 16.384 10.7561 15.8955 11.1919C15.7728 11.3005 15.6229 11.6155 15.1324 13.0286C14.8847 13.7428 14.839 14.1335 14.793 14.5133C14.7517 14.8603 14.7095 15.2173 14.5249 15.7495C14.3965 16.117 14.3016 16.4338 14.2099 16.7391C13.968 17.5508 13.7768 18.19 13.2022 18.9503C13.1348 19.0402 13.0513 19.1725 12.9547 19.3231C12.8244 19.5283 12.6631 19.7833 12.4504 20.0786C12.3003 20.2866 11.9555 21.0651 11.9743 21.3023C12.0025 21.6802 12.1253 21.9145 12.2659 22.1881C12.4057 22.4579 12.5649 22.7633 12.5939 23.185L12.5988 23.2535C12.6499 23.9224 12.5546 24.2581 11.2817 25.3948C10.4678 26.1229 9.88969 26.8242 9.49968 27.3389C9.46531 27.3844 9.51001 27.4518 9.5669 27.4472C9.5801 27.4454 9.59322 27.4446 9.60541 27.4446C9.62996 27.4425 9.65426 27.4418 9.67856 27.4418C9.70285 27.4418 9.7274 27.4425 9.75145 27.4435C9.776 27.4446 9.79953 27.4464 9.82357 27.4501C10.1314 27.4852 10.4314 27.6154 10.648 27.8396C10.6857 27.8787 10.7444 27.8893 10.7945 27.8691C11.0018 27.7828 11.2295 27.7971 11.4471 27.8175C11.7159 27.8423 11.9873 27.9226 12.1656 28.096C12.2193 28.1485 12.2961 28.1751 12.3695 28.1583C12.5801 28.1105 12.8011 28.1149 13.006 28.1893C13.1678 28.2495 13.3038 28.3446 13.4118 28.4642C13.4873 28.548 13.6212 28.564 13.7158 28.503C13.7747 28.465 13.8396 28.4329 13.9117 28.4087C14.1879 28.3149 14.4937 28.3683 14.762 28.4648C14.894 28.5123 15.0325 28.5547 15.1517 28.6342C15.3706 28.78 15.5043 28.9929 15.5895 29.2309C15.6378 29.365 15.8185 29.4115 15.9281 29.3203C16.125 29.1565 16.2809 29.1288 16.438 29.1985C16.5181 29.2348 16.574 29.2844 16.6115 29.3466C16.6768 29.4549 16.8099 29.544 16.9316 29.5099C17.3594 29.3908 17.8949 29.4529 18.2828 29.6606C18.4198 29.7324 18.5544 29.8423 18.6526 30.0081L18.6529 30.0084C18.6532 30.0091 18.654 30.0089 18.654 30.0081L18.6653 29.9345C18.6705 29.9011 18.694 29.8735 18.7263 29.8634L18.8163 29.8358C19.0281 29.7684 20.1079 29.4573 20.5279 29.8993C20.546 29.9174 20.5776 29.9192 20.5951 29.9003C20.6523 29.8376 20.6987 29.8032 20.7285 29.7861C21.002 29.6203 21.4711 29.61 21.7829 29.8772C21.8458 29.9298 21.9476 29.9107 21.9949 29.8435C22.0241 29.8024 22.0572 29.766 22.0944 29.7348C22.204 29.6402 22.3428 29.595 22.4966 29.6045L23.0897 29.5725C23.2389 29.5642 23.7025 29.5327 23.8485 29.502C23.8596 29.4996 23.871 29.4976 23.8826 29.4957C23.9444 29.4861 24.0178 29.4704 24.0946 29.4544C24.3822 29.3916 24.7087 29.321 24.9766 29.4448C25.234 29.5639 25.2014 29.8573 25.1705 30.1159C25.1583 30.2208 25.1451 30.3303 25.1462 30.4344C25.1479 30.483 25.149 30.5319 25.1498 30.5817C25.1537 30.8047 25.1583 31.0107 25.1142 31.1688V31.1699V31.1706L25.1412 31.2931C25.1425 31.2978 25.1439 31.3037 25.1454 31.311C25.1697 31.4231 25.2902 31.4856 25.3881 31.4259C25.5948 31.2998 25.8121 31.136 25.8778 31.0417C25.8827 31.0345 25.8866 31.027 25.8894 31.0187C25.8985 30.995 25.9153 30.9435 25.9336 30.8361C25.9704 30.6156 26.0114 30.1678 26.0151 29.2585C26.0151 29.2105 26.0151 29.1761 26.0161 29.1601C26.0236 28.8226 26.0104 28.5519 25.9972 28.3128C25.9729 27.8198 25.953 27.4319 26.1978 27.0371C26.4361 26.6529 26.6674 26.5077 26.8896 26.3669C27.1481 26.2049 27.4399 26.0209 27.9312 25.3472C28.1721 25.0154 28.2018 24.8816 28.2254 24.7747C28.2789 24.5243 28.3616 24.3737 28.7335 24.0925C29.0364 23.8638 29.9577 23.1656 31.2008 23.3746C31.6084 23.4439 32.2693 23.6612 32.9213 23.918C32.9213 23.918 32.9218 23.9183 32.9223 23.9183H32.9232C32.9475 23.9256 32.9725 23.9341 32.9955 23.9462C33.0038 23.9506 33.0123 23.9548 33.0211 23.9584C33.6036 24.191 34.1704 24.4506 34.5335 24.6581C34.6181 24.7064 34.7263 24.6785 34.7858 24.6013C34.9046 24.447 35.0344 24.3576 35.1743 24.2736C35.2267 24.2419 35.267 24.2176 35.3055 24.1847C35.3187 24.1736 35.3316 24.1628 35.3442 24.1525C35.4529 24.0646 35.4526 23.8767 35.3283 23.8126C33.5762 22.907 31.926 22.4013 31.3807 22.2463ZM18.9292 22.6484C18.5249 24.4168 15.7849 26.3606 14.5394 26.3606H14.5149C14.4952 26.3596 14.4736 26.3578 14.4503 26.3539C14.4267 26.3503 14.4014 26.3446 14.3745 26.3372C14.3614 26.3333 14.3472 26.3286 14.3332 26.325C14.1071 26.2537 13.7941 26.0801 13.5571 25.8469C13.394 25.687 13.2655 25.4981 13.2252 25.2948C13.2178 25.2592 13.2102 25.2237 13.2025 25.1881C13.1353 24.8873 13.0516 24.5116 13.317 23.8966C13.3536 23.8142 13.3862 23.7372 13.4162 23.667C13.4258 23.6437 13.4361 23.6201 13.4454 23.5977C13.4736 23.5312 13.4987 23.4703 13.5214 23.415C13.5589 23.3215 13.5897 23.2419 13.615 23.1742C13.6253 23.1478 13.6349 23.1224 13.6432 23.0992C13.7191 22.8866 13.7284 22.807 13.7387 22.7246C13.7483 22.66 13.7576 22.5809 13.784 22.4685C13.8618 22.1367 13.9021 21.8556 13.9378 21.6052C14.0016 21.1551 14.0569 20.7665 14.2996 20.4094C14.341 20.3486 14.3867 20.2931 14.4383 20.2445C14.4562 20.2277 14.4733 20.2117 14.4916 20.1956C14.5105 20.1796 14.5294 20.1657 14.5477 20.1515C14.6066 20.1101 14.6697 20.0737 14.7379 20.0427C14.7615 20.0324 14.7849 20.022 14.8082 20.0138C14.8563 19.9959 14.9067 19.9807 14.9594 19.9675C15.1825 19.9135 15.4458 19.905 15.7485 19.9432C16.0796 19.9696 16.386 20.0321 16.6577 20.1081C16.8846 20.1706 17.0872 20.244 17.2586 20.3122C17.2764 20.3189 17.2935 20.3254 17.3103 20.3329C17.3431 20.3461 17.3749 20.3593 17.4059 20.3734C17.4529 20.393 17.4959 20.4119 17.5362 20.4295C17.5897 20.4538 17.6385 20.4755 17.6817 20.4949L17.722 20.5138C17.9132 20.6008 18.0776 20.6965 18.2179 20.7967C18.2872 20.8476 18.3521 20.899 18.41 20.9512C18.4299 20.9683 18.4488 20.9861 18.466 21.0047C18.4849 21.0228 18.5028 21.0406 18.5195 21.0584C19.046 21.6127 19.0199 22.2538 18.9292 22.6484ZM20.1989 15.9454L20.1457 16.2661C20.0229 16.9885 19.7407 17.9792 18.7002 18.2342C17.6992 18.4789 17.462 18.5311 16.7495 18.5631C16.7337 18.565 16.7166 18.565 16.6998 18.565C16.1796 18.565 15.1783 18.237 15.0011 17.4215C14.8875 16.8967 15.1192 16.5164 15.5006 15.8857C15.5642 15.7816 15.6329 15.6699 15.7058 15.5454C16.21 14.696 16.4088 14.0813 16.5685 13.5883C16.7238 13.1067 16.8533 12.7085 17.1862 12.3785C17.263 12.3018 17.3501 12.2294 17.4514 12.1602C17.516 12.116 17.5835 12.0767 17.6548 12.04C17.7493 11.993 17.8486 11.9522 17.9528 11.9191C18.1844 11.8452 18.4345 11.8077 18.6849 11.8077C19.1703 11.8077 19.6552 11.9472 20.001 12.2247C20.1565 12.3494 20.3778 12.5984 20.5062 13.3333C20.5724 13.7118 20.4597 14.4074 20.1989 15.9454ZM27.6223 18.0017C27.2642 18.6164 27.0683 18.9549 26.7589 19.2086C26.1451 19.7128 25.4289 19.8404 24.8391 19.8404C24.4156 19.8404 24.0558 19.775 23.8438 19.7363C23.2345 19.6249 22.1003 19.4187 21.7225 18.5236C21.6486 18.3467 21.6478 18.2342 21.6478 18.0916C21.6478 17.9508 21.6478 17.7141 21.5821 17.1505L21.5786 17.113C21.5483 16.858 21.5147 16.5694 21.5878 16.1991L21.5964 16.1549C21.8101 15.0681 21.868 14.902 21.9161 14.8082C22.0267 14.5945 22.289 14.5103 22.5028 14.6201C22.7098 14.7279 22.7961 14.9787 22.6987 15.1896C22.6769 15.2513 22.6162 15.4828 22.451 16.3236L22.4426 16.3678C22.3955 16.605 22.4162 16.7849 22.4436 17.0128L22.4471 17.0513C22.5183 17.6631 22.5183 17.9404 22.5183 18.0906C22.5183 18.1172 22.5183 18.1461 22.5193 18.1634C22.5195 18.1701 22.5229 18.179 22.5249 18.1854C22.5958 18.3533 22.7556 18.4808 22.9501 18.5786C23.0711 18.6394 23.1975 18.5238 23.1706 18.3914C22.977 17.4335 22.9876 16.3162 23.3536 15.6257C23.4735 15.3966 23.6952 15.0214 23.9059 14.6712C23.9066 14.6702 23.9071 14.6694 23.9077 14.6684C23.9082 14.6673 23.909 14.6666 23.9095 14.6656C23.9309 14.6302 23.9522 14.5953 23.9733 14.5602C23.9912 14.5299 24.009 14.5012 24.0256 14.473C24.1183 14.3191 24.2055 14.1777 24.2752 14.0653C24.2845 14.0493 24.2938 14.0333 24.3034 14.0183C24.3098 14.0069 24.3165 13.9966 24.323 13.9873C24.338 13.9627 24.3511 13.9402 24.3636 13.9208C24.369 13.9116 24.3747 13.9031 24.3793 13.8945C24.3822 13.8909 24.3843 13.8871 24.386 13.8842C24.3925 13.8728 24.3992 13.8625 24.4049 13.8542C24.4161 13.8363 24.4245 13.8232 24.4292 13.8147C24.4297 13.8139 24.4301 13.8134 24.4303 13.8126C24.4313 13.8108 24.4334 13.808 24.4344 13.8061C24.4352 13.8049 24.4355 13.8046 24.4362 13.8033C24.5089 13.6976 24.5807 13.5971 24.6505 13.5025C24.7453 13.3741 24.6355 13.2059 24.4876 13.2664C24.132 13.4113 23.8891 13.5966 23.8397 13.6356C23.6513 13.7857 23.3774 13.7547 23.2284 13.5664C23.0794 13.3783 23.1103 13.1036 23.2988 12.9535C23.5229 12.7775 24.7104 11.9114 26.1327 12.318C27.1574 12.6095 27.6945 13.3922 27.8968 13.6865C28.0599 13.9255 28.5597 14.6511 28.5437 15.664C28.5318 16.4366 28.2095 16.9924 27.6223 18.0017Z" fill="white"/>
<path d="M18.3858 12.7041C18.3129 12.8804 18.2258 13.0987 18.1323 13.3359C17.9136 13.8852 17.6657 14.5074 17.5466 14.7331C17.3411 15.1229 17.1811 15.3689 17.0535 15.5671C16.9072 15.7947 16.7906 15.9749 16.7028 16.226C16.5485 16.6652 16.5208 17.1562 16.6211 17.6901C16.3487 17.6601 15.9028 17.4725 15.8525 17.2361C15.8147 17.0601 15.9241 16.8676 16.2464 16.3376C16.311 16.232 16.3802 16.117 16.456 15.9891C17.0098 15.0565 17.2339 14.3628 17.3988 13.8555C17.5766 13.3036 17.6606 13.0721 17.9436 12.8788C18.0702 12.7907 18.2243 12.7346 18.3858 12.7041Z" fill="white"/>
<path d="M17.8448 32.2603C17.5429 32.8769 17.1671 33.4458 16.933 33.7277C16.7392 33.2037 16.4022 32.003 16.4911 31.0369C16.4936 31.0089 16.4968 30.9813 16.5009 30.9544C16.5365 30.656 16.6159 30.3824 16.757 30.163C16.85 30.0188 17.1077 29.9307 17.4003 29.9307C17.6163 29.9307 17.8512 29.978 18.0537 30.0865H18.0552C18.1635 30.1444 18.3111 30.2617 18.3266 30.6025C18.3488 31.0629 18.1293 31.6818 17.8448 32.2603Z" fill="white"/>
<path d="M34.3842 25.3516C34.4074 25.3705 34.4222 25.3989 34.4087 25.4257C34.3185 25.6069 34.2105 25.734 34.0828 25.8836C33.9288 26.0671 33.7525 26.2751 33.5887 26.5993C33.3553 27.059 33.2806 27.4784 33.2413 28.552C33.195 29.8132 33.2438 30.5218 33.2806 31.0383C33.3155 31.5372 33.3369 31.838 33.248 32.3245C33.0686 33.3062 32.6486 33.956 32.1168 34.7785C31.4513 35.8072 30.763 36.8705 29.6233 37.2094C29.5173 37.242 29.5136 37.242 29.2165 37.243C28.9578 37.243 28.5275 37.2441 27.7128 37.274C26.2239 37.328 25.477 37.355 24.8378 37.4777C24.1674 37.6074 23.8177 37.7501 23.4787 37.8869C23.1727 38.0107 22.8835 38.1283 22.3291 38.2422C21.9986 38.309 21.5047 38.3818 19.8216 38.3844C18.0725 38.3875 17.0164 38.3883 15.6221 38.2294C13.709 38.011 12.7487 37.9017 12.1108 37.5611C10.6064 36.7588 9.97113 35.3159 8.92029 32.9256C8.91843 32.9214 8.91665 32.9173 8.91479 32.9129C8.90192 32.8832 8.93807 32.8546 8.96601 32.8711C9.01587 32.9021 9.06785 32.9276 9.12262 32.946C9.16859 32.9622 9.21642 32.9747 9.26476 32.9827C9.36093 32.999 9.46116 33 9.563 32.9827C9.58086 32.9796 9.59712 32.9755 9.61286 32.969C9.616 32.9677 9.61888 32.9661 9.62192 32.9649C9.63979 32.9561 9.66171 32.9633 9.66925 32.9816C9.73621 33.1659 9.84237 33.33 10.0207 33.4246C10.1994 33.5176 10.4025 33.5248 10.6012 33.5233C10.8059 33.5201 11.0121 33.5085 11.2161 33.484C11.3241 33.4726 11.4347 33.5255 11.4761 33.6261C11.6629 34.0788 11.8943 34.4064 12.2419 34.4547C12.2607 34.4574 12.2853 34.4604 12.3163 34.4604C12.3946 34.4604 12.5156 34.4377 12.6861 34.3204C12.8182 34.23 13.0226 34.2831 13.1175 34.4121C13.2043 34.5297 13.3077 34.6141 13.3966 34.6855C13.7545 35.0529 14.6245 35.2292 15.3551 35.2292C15.7536 35.2292 16.1111 35.1767 16.3214 35.0744C16.6223 34.9284 16.6223 34.7044 16.6076 34.6136C16.5819 34.4511 16.5587 34.2899 16.5391 34.1302C16.5367 34.1111 16.5657 34.1036 16.5735 34.1214C16.6171 34.2168 16.6706 34.3356 16.813 34.3586C16.8285 34.3602 16.8458 34.3636 16.8655 34.3636C17.0691 34.3636 17.386 34.4299 17.4405 34.6261C17.4684 34.7261 17.5077 34.8196 17.5612 34.9041C17.6835 35.0976 17.9324 35.3281 18.4257 35.3363H18.464C19.0305 35.3363 19.4678 35.1511 19.7627 34.785C19.7818 34.7614 19.8001 34.7371 19.8177 34.7126C19.9237 34.5633 20.2385 34.5568 20.3732 34.6808C20.5249 34.8211 20.7158 34.8935 20.9286 34.8935C20.9627 34.8935 20.9973 34.892 21.033 34.8878C21.2865 34.8609 21.5059 34.7266 21.6698 34.4974C21.777 34.3478 21.8553 34.1638 21.9125 33.9648C21.9292 33.9062 22.0099 33.8889 22.0549 33.9299C22.1631 34.0302 22.3368 34.1362 22.5873 34.1362C22.6483 34.1362 22.7144 34.1297 22.7848 34.1149C23.2768 34.016 23.5219 33.6088 23.6378 33.1491C23.6417 33.1336 23.664 33.1294 23.6743 33.1416C23.7989 33.2933 24.0289 33.4685 24.4292 33.4685C24.4497 33.4685 24.4709 33.4685 24.4918 33.4674C24.7037 33.4577 24.8823 33.3646 25.0113 33.1982C25.1682 32.9938 25.2299 32.6907 25.2441 32.3858C25.2482 32.2969 25.3056 32.2189 25.3878 32.1845C25.8101 32.008 26.3216 31.6279 26.4715 31.369C26.4767 31.36 26.4819 31.3504 26.487 31.3406C26.5214 31.2739 26.5803 31.2212 26.654 31.2072C26.9812 31.1453 27.1238 31.0835 27.2536 31.0272C27.3592 30.9807 27.4443 30.944 27.682 30.907C29.5739 30.6184 29.9433 30.5548 30.3526 30.2819C30.9649 29.8737 30.9959 29.3117 31.0261 28.768C31.052 28.3084 31.0815 27.7867 31.4386 27.1746C31.5683 26.9511 31.718 26.6722 31.8772 26.3771C32.1558 25.8606 32.545 25.1374 32.8236 24.7583C32.8761 24.6868 32.9709 24.6645 33.0526 24.6991C33.7065 24.9769 34.2634 25.255 34.3842 25.3516Z" fill="white"/>
<path d="M16.012 30.9794C15.9369 31.6335 15.8912 32.507 15.9972 33.6451C16.0272 33.9662 16.069 34.2995 16.121 34.6372C16.0313 34.6861 15.7636 34.7546 15.2875 34.747C14.6034 34.7334 13.9374 34.5613 13.7373 34.345L13.7063 34.3171C13.5398 34.1835 13.4308 34.0954 13.4153 33.8566C13.4101 33.776 13.4448 33.6962 13.5187 33.5833C13.5596 33.5197 13.6133 33.4463 13.6799 33.3559C13.795 33.2016 13.9376 33.0094 14.0837 32.7613C14.5119 32.0381 14.6742 31.8148 14.8804 31.5326C14.8967 31.5099 14.914 31.4869 14.9319 31.4634C15.0533 31.297 15.196 31.098 15.4106 30.7712C15.5702 30.5285 15.7031 30.3384 15.8127 30.1891C15.9954 29.9407 16.1151 29.8058 16.1918 29.7324C16.1804 29.8451 16.1551 30.0032 16.1306 30.1493C16.0944 30.3738 16.0486 30.6485 16.012 30.9794Z" fill="white"/>
<path d="M15.6985 20.8124C15.6943 20.818 15.6894 20.8238 15.6853 20.8297C15.5964 20.953 15.4945 21.0922 15.3731 21.3636C15.0469 22.0883 15.0407 22.4986 15.0355 22.8286C15.0324 23.0015 15.0306 23.1392 14.9833 23.2999C14.9507 23.4059 14.8978 23.5273 14.8365 23.6674C14.6442 24.1077 14.393 24.6849 14.5057 25.4617C14.3498 25.3867 14.1116 25.2154 14.0785 25.1242C14.0702 25.0818 14.0611 25.0402 14.0516 24.9986C13.9976 24.7562 13.9619 24.5984 14.116 24.2436C14.5212 23.3092 14.5711 23.0877 14.6029 22.8333C14.6094 22.7777 14.6161 22.7346 14.6323 22.6643C14.7179 22.2958 14.7626 21.9804 14.7993 21.7268C14.8539 21.3421 14.8905 21.0876 15.0203 20.8961C15.0675 20.8253 15.2015 20.7886 15.3929 20.7886C15.4686 20.7886 15.5542 20.7943 15.6475 20.8075L15.6693 20.8091C15.6787 20.8101 15.6889 20.8108 15.6985 20.8124Z" fill="white"/>
<path d="M15.1639 30.0295C15.1419 29.8055 15.1027 29.581 15.0212 29.3699C15.0156 29.3593 14.9913 29.3053 14.9861 29.2949C14.9714 29.268 14.9545 29.2427 14.9388 29.2161C14.9378 29.2151 14.9372 29.2151 14.9372 29.2143C14.9361 29.2127 14.9356 29.2127 14.9356 29.212C14.9267 29.2021 14.9184 29.1926 14.9096 29.1833C14.8964 29.1701 14.8821 29.1574 14.868 29.1459C14.8654 29.1427 14.8631 29.1401 14.8607 29.1391C14.8543 29.1337 14.8445 29.126 14.8339 29.1197C14.8165 29.1107 14.8003 29.1009 14.7834 29.0923C14.7783 29.089 14.7662 29.0841 14.7547 29.0799C14.7547 29.0799 14.754 29.0799 14.754 29.0791C14.7514 29.0781 14.7488 29.0776 14.7468 29.0766C14.7441 29.075 14.7426 29.074 14.741 29.0735C14.7385 29.0725 14.7369 29.0719 14.7353 29.0719C14.7338 29.0719 14.7338 29.0708 14.7338 29.0708C14.7287 29.0683 14.7255 29.0678 14.7232 29.0668C14.5927 29.019 14.4604 28.9665 14.3219 28.9461C14.3211 28.9461 14.3187 28.9453 14.317 28.9453H14.3138C14.2983 28.9453 14.2665 28.9422 14.265 28.9422C14.2456 28.9412 14.2267 28.9412 14.2078 28.9422C14.1988 28.9422 14.1901 28.9422 14.1818 28.943H14.1746C14.1714 28.943 14.1676 28.944 14.1634 28.944C14.1619 28.9456 14.1593 28.9456 14.1582 28.9456C14.1575 28.9456 14.1567 28.9456 14.1567 28.9456C14.1257 28.9546 14.0931 28.9629 14.0622 28.9725C14.0489 28.9792 14.0345 28.9856 14.0213 28.9939C14.0102 29.0003 13.9985 29.0086 13.9872 29.0143C13.9864 29.0151 13.9849 29.0167 13.983 29.0167L13.9807 29.0192C13.966 29.0339 13.9505 29.0477 13.9358 29.0624C13.9309 29.0675 13.9171 29.0843 13.9073 29.0968C13.9047 29.0983 13.9032 29.0998 13.9032 29.1014C13.9024 29.1022 13.9024 29.1022 13.9016 29.1029C13.9008 29.1037 13.9008 29.1045 13.899 29.1052C13.8983 29.1063 13.8983 29.1071 13.8975 29.1071C13.8936 29.114 13.8895 29.1199 13.8879 29.1233C13.8354 29.2048 13.7825 29.2856 13.7279 29.366C13.6023 29.5585 13.4736 29.75 13.3431 29.9401C13.224 30.1122 13.1051 30.2843 12.9867 30.4562C12.9206 30.5525 12.8554 30.6476 12.7903 30.744C12.7789 30.7602 12.7684 30.7765 12.7577 30.7928C12.835 30.8076 12.9125 30.8228 12.9908 30.8375C13.1661 30.8695 13.3405 30.9003 13.5183 30.9246C13.8843 30.9744 14.2564 30.9974 14.6273 30.9842C14.6452 30.9832 14.663 30.9842 14.6796 30.9874C14.7687 30.8602 14.8737 30.7086 15.0075 30.5055C15.0817 30.3921 15.1525 30.2871 15.2191 30.19C15.1892 30.1434 15.1703 30.0879 15.1639 30.0295Z" fill="white"/>
<path d="M13.8603 31.5416C13.8288 31.8238 13.513 32.5541 13.0204 33.2493C12.6079 33.8307 12.3574 33.9719 12.3076 33.9768C12.1085 33.9491 11.9121 33.4566 11.7563 32.9683C11.6937 32.7703 11.6372 32.5729 11.5898 32.4075C11.4831 32.036 11.4637 31.5375 11.4823 31.2246C11.8984 31.4551 12.6288 31.5171 13.6549 31.5212H13.658C13.7257 31.5284 13.7926 31.536 13.8603 31.5416Z" fill="white"/>
<path d="M13.1307 29.2181C13.1307 29.2192 13.1307 29.2192 13.1307 29.2198C13.1258 29.2264 13.1216 29.2336 13.117 29.2402C12.9407 29.4993 12.7632 29.7571 12.5853 30.0153C12.4933 30.1483 12.4021 30.2812 12.3114 30.415C12.2618 30.4876 12.1948 30.5675 12.1369 30.6538C11.9909 30.6195 11.8452 30.5861 11.7007 30.5453C11.5826 30.5112 11.466 30.4744 11.3515 30.4287C11.3285 30.4204 11.3065 30.4115 11.2853 30.4011C11.2665 30.3629 11.2396 30.3285 11.207 30.3024C11.2078 30.3016 11.2078 30.2993 11.2086 30.2983C11.2502 30.2135 11.2925 30.1279 11.3342 30.0432C11.4133 29.8877 11.4926 29.7329 11.5804 29.5828C11.7373 29.3119 11.9263 29.0366 12.1914 28.8611C12.2046 28.8512 12.2191 28.8422 12.2331 28.8334C12.3359 28.7688 12.4388 28.7233 12.5649 28.7078C12.5796 28.7063 12.6685 28.7068 12.7102 28.7105C12.7174 28.7105 12.7233 28.7112 12.7275 28.7112H12.7282C12.7313 28.7122 12.7373 28.7138 12.7461 28.7169C12.7771 28.7267 12.8084 28.7331 12.8394 28.7437C12.85 28.7489 12.8595 28.7536 12.8704 28.7592C12.8973 28.7756 12.925 28.7903 12.9503 28.8107C12.9094 28.7797 13.0066 28.8799 13.0066 28.8727C13.0849 28.9809 13.1087 29.0717 13.1307 29.2181Z" fill="white"/>
<path d="M11.7351 28.4837C11.4089 28.7519 11.1717 29.109 10.9737 29.4805C10.8626 29.6867 10.7623 29.8971 10.6579 30.1066C10.6473 30.128 10.6367 30.1484 10.6246 30.1694C10.5258 30.1479 10.4271 30.1196 10.3307 30.0888C10.2281 30.0563 10.126 30.0188 10.0283 29.9733C9.98357 29.9519 9.93862 29.9299 9.89392 29.9063C9.99161 29.7214 10.1082 29.5436 10.2193 29.371C10.376 29.1271 10.5454 28.8875 10.7297 28.6625C10.799 28.577 10.8724 28.4832 10.9696 28.4268C11.0689 28.3681 11.189 28.3821 11.303 28.3885C11.4237 28.3961 11.5534 28.3992 11.6674 28.4449C11.6909 28.455 11.7165 28.4707 11.7351 28.4837Z" fill="white"/>
<path d="M11.2171 32.8597C11.2009 32.8733 11.1872 32.888 11.175 32.9054C11.1636 32.9085 11.152 32.9111 11.1448 32.9128C11.0664 32.9209 10.9866 32.9265 10.9075 32.9317C10.7558 32.9413 10.6018 32.948 10.4485 32.9423C10.363 32.9392 10.2854 32.926 10.2503 32.8715C10.1939 32.786 10.1769 32.6367 10.1567 32.5232C10.0564 31.9664 10.0433 31.3863 10.1143 30.8228C10.4054 30.9271 10.7049 31.008 11.0119 31.0584C10.9457 31.5664 11.0584 32.3121 11.1243 32.5405C11.1551 32.6468 11.1861 32.7542 11.2171 32.8597Z" fill="white"/>
<path d="M10.2808 28.2982C10.0231 28.6144 9.78841 28.9511 9.57778 29.3C9.49279 29.4418 9.39662 29.5886 9.32585 29.7403C9.22375 29.7118 9.13173 29.671 9.03404 29.6106C8.95912 29.564 8.88623 29.5126 8.81537 29.4589C8.79751 29.4441 8.74866 29.4059 8.71819 29.3813C8.71124 29.3759 8.70447 29.3702 8.69702 29.3661C8.72056 29.2995 8.76373 29.2251 8.78743 29.1751C8.84144 29.0571 8.90172 28.941 8.96479 28.8281C9.08441 28.6162 9.21833 28.4091 9.37004 28.2183C9.42633 28.1481 9.47984 28.0576 9.56746 28.0315C9.64737 28.0088 9.75251 28.0194 9.81685 28.0305C10.0076 28.0674 10.157 28.154 10.2808 28.2982Z" fill="white"/>
<path d="M8.29539 29.671C8.299 29.6576 8.31657 29.6558 8.32459 29.6671C8.3923 29.7635 8.48665 29.8472 8.58799 29.926C8.63319 29.9604 8.67789 29.9945 8.72361 30.0268C8.72928 30.031 8.7319 30.0379 8.73038 30.0449C8.62363 30.487 8.55074 30.9565 8.55201 31.419C8.55201 31.4394 8.52128 31.4436 8.51662 31.4237C8.3861 30.8852 8.2088 29.9876 8.29539 29.671Z" fill="white"/>
<path d="M9.55689 30.6321C9.50465 31.0168 9.4796 31.4026 9.49644 31.7904C9.50465 32.0031 9.52743 32.2145 9.55613 32.4246C9.55613 32.4261 9.55612 32.4279 9.55689 32.4287V32.4297C9.51117 32.4192 9.46334 32.4176 9.4145 32.4246C9.42406 32.4214 9.399 32.423 9.38834 32.423H9.38529C9.37801 32.4222 9.36743 32.4214 9.36379 32.4207C9.31003 32.4075 9.30537 32.4018 9.26279 32.375C9.20717 32.339 9.14851 32.2736 9.10948 32.207C9.00586 32.0276 8.98317 31.8098 8.97488 31.6067C8.95964 31.2083 8.99375 30.8104 9.06817 30.4199C9.13174 30.4457 9.18702 30.4695 9.2793 30.5093C9.37056 30.5491 9.46512 30.5884 9.55739 30.6311V30.6321H9.55689Z" fill="white"/>
</g>
<defs>
<filter id="filter0_d_2409_13978" x="-5.52077" y="-4.38885" width="59.3135" height="56.5751" filterUnits="userSpaceOnUse" color-interpolation-filters="sRGB">
<feFlood flood-opacity="0" result="BackgroundImageFix"/>
<feColorMatrix in="SourceAlpha" type="matrix" values="0 0 0 0 0 0 0 0 0 0 0 0 0 0 0 0 0 0 127 0" result="hardAlpha"/>
<feOffset dx="0.26385" dy="0.395775"/>
<feGaussianBlur stdDeviation="0.329812"/>
<feComposite in2="hardAlpha" operator="out"/>
<feColorMatrix type="matrix" values="0 0 0 0 0 0 0 0 0 0 0 0 0 0 0 0 0 0 0.12 0"/>
<feBlend mode="normal" in2="BackgroundImageFix" result="effect1_dropShadow_2409_13978"/>
<feBlend mode="normal" in="SourceGraphic" in2="effect1_dropShadow_2409_13978" result="shape"/>
</filter>
<linearGradient id="paint0_linear_2409_13978" x1="-4.99995" y1="-4" x2="49.9409" y2="53.6761" gradientUnits="userSpaceOnUse">
<stop offset="0.205697" stop-color="#89D0FF"/>
<stop offset="0.398413" stop-color="#EBBF9A"/>
<stop offset="0.601546" stop-color="#EB8280"/>
<stop offset="0.841139" stop-color="#A281FF"/>
</linearGradient>
<linearGradient id="paint1_linear_2409_13978" x1="-2.85994" y1="-1.53223" x2="47.7893" y2="51.8562" gradientUnits="userSpaceOnUse">
<stop offset="0.205697" stop-color="#89D0FF"/>
<stop offset="0.398413" stop-color="#EBBF9A"/>
<stop offset="0.601546" stop-color="#EB80DA"/>
<stop offset="0.841139" stop-color="#A281FF"/>
</linearGradient>
<linearGradient id="paint2_linear_2409_13978" x1="-0.711797" y1="0.611071" x2="45.6453" y2="49.7108" gradientUnits="userSpaceOnUse">
<stop offset="0.205697" stop-color="#89D0FF"/>
<stop offset="0.398413" stop-color="#EBBF9A"/>
<stop offset="0.601546" stop-color="#EB8280"/>
<stop offset="0.841139" stop-color="#A281FF"/>
</linearGradient>
<linearGradient id="paint3_linear_2409_13978" x1="1.43232" y1="2.7627" x2="43.4874" y2="47.5605" gradientUnits="userSpaceOnUse">
<stop offset="0.205697" stop-color="#89D0FF"/>
<stop offset="0.398413" stop-color="#EBBF9A"/>
<stop offset="0.601546" stop-color="#EB80E7"/>
<stop offset="0.841139" stop-color="#A281FF"/>
</linearGradient>
<linearGradient id="paint4_linear_2409_13978" x1="3.57588" y1="4.90527" x2="41.337" y2="45.3978" gradientUnits="userSpaceOnUse">
<stop offset="0.205697" stop-color="#89D0FF"/>
<stop offset="0.398413" stop-color="#EBBF9A"/>
<stop offset="0.601546" stop-color="#EB80D3"/>
<stop offset="0.841139" stop-color="#A281FF"/>
</linearGradient>
<linearGradient id="paint5_linear_2409_13978" x1="5.71685" y1="7.04785" x2="39.1807" y2="43.2515" gradientUnits="userSpaceOnUse">
<stop offset="0.205697" stop-color="#89D0FF"/>
<stop offset="0.398413" stop-color="#EBBF9A"/>
<stop offset="0.601546" stop-color="#A280EB"/>
<stop offset="0.841139" stop-color="#A281FF"/>
</linearGradient>
<clipPath id="clip0_2409_13978">
<rect width="48" height="48" fill="white"/>
</clipPath>
</defs>
</svg>
