<svg width="48" height="48" viewBox="0 0 48 48" fill="none" xmlns="http://www.w3.org/2000/svg">
<rect width="48" height="48" fill="#DF42AB"/>
<path d="M11 22.4289C11 22.0101 11.3396 21.6705 11.7584 21.6705H24.5C24.9189 21.6705 25.2584 22.0101 25.2584 22.4289V36.384C25.2584 36.8029 24.9189 37.1424 24.5 37.1424H11.7584C11.3396 37.1424 11 36.8029 11 36.384V22.4289Z" fill="white"/>
<path d="M23.2757 23.0357H11.7584C11.3396 23.0357 11 22.6961 11 22.2773V10.7599C11 10.0843 11.8169 9.74588 12.2947 10.2237L23.812 21.741C24.2898 22.2188 23.9514 23.0357 23.2757 23.0357Z" fill="white"/>
<path d="M25.7243 24.2492L37.2416 24.2492C37.6604 24.2492 38 24.5887 38 25.0076L38 36.5249C38 37.2006 37.1831 37.539 36.7053 37.0612L25.188 25.5439C24.7102 25.0661 25.0486 24.2492 25.7243 24.2492Z" fill="white"/>
<path d="M23.7416 10.9009C23.7416 10.482 24.0811 10.1424 24.5 10.1424H37.2416C37.6604 10.1424 38 10.482 38 10.9009V24.7042C38 25.1231 37.6604 25.4627 37.2416 25.4627H24.5C24.0811 25.4627 23.7416 25.1231 23.7416 24.7042V10.9009Z" fill="white"/>
</svg>
