<svg width="48" height="48" viewBox="0 0 48 48" fill="none" xmlns="http://www.w3.org/2000/svg">
<rect width="48" height="48" fill="black"/>
<g clip-path="url(#clip0_2410_14022)">
<path d="M23.5855 17.2456C25.8696 17.2456 27.7212 15.3997 27.7212 13.1228C27.7212 10.8458 25.8696 9 23.5855 9C21.3014 9 19.4498 10.8458 19.4498 13.1228C19.4498 15.3997 21.3014 17.2456 23.5855 17.2456Z" fill="#FF931E"/>
<path d="M35.0849 25.8672C33.1056 24.7298 30.5771 25.4072 29.4362 27.3802C29.0434 28.0591 28.8669 28.8025 28.8837 29.5323C28.9252 31.3494 27.2861 32.2949 25.7276 31.3565C25.6661 31.3191 25.6031 31.2825 25.5392 31.2483C23.9632 30.3712 23.9639 28.5032 25.5408 27.6269C26.8318 26.9297 27.7092 25.5663 27.7092 24C27.7092 23.9682 27.7076 23.9371 27.7068 23.9061L27.7084 23.9085C27.6677 22.089 29.3108 21.1443 30.8709 22.0898C32.1204 22.8459 33.7348 22.9168 35.0896 22.136C37.0673 20.9971 37.7443 18.4748 36.6018 16.5034C35.4593 14.5319 32.9292 13.857 30.9515 14.9959C29.5975 15.7759 28.8541 17.203 28.8853 18.6587C28.926 20.4741 27.2885 21.4189 25.7316 20.4821C25.1033 20.0985 24.3655 19.8772 23.5751 19.8772C22.7847 19.8772 22.047 20.0985 21.4194 20.4813C19.8658 21.4149 18.233 20.4718 18.2746 18.6603C18.3065 17.2014 17.5592 15.7711 16.2011 14.992C14.2211 13.857 11.6925 14.5367 10.554 16.5105C9.41551 18.4844 10.0973 21.005 12.0774 22.14C13.4307 22.916 15.0402 22.8435 16.2873 22.0898C17.8434 21.1483 19.4825 22.0922 19.441 23.9069L19.4426 23.9045C19.4426 23.9363 19.4402 23.9682 19.4402 24.0008C19.4402 25.5679 20.3169 26.9305 21.6087 27.6277C23.1863 28.5048 23.1855 30.3752 21.6071 31.2507C21.5432 31.2849 21.4809 31.3215 21.4194 31.3589C19.8658 32.2909 18.2338 31.347 18.2754 29.5355C18.2929 28.8025 18.1149 28.0551 17.7197 27.3738C16.5748 25.4032 14.0446 24.7314 12.0678 25.872C10.087 27.0125 9.41312 29.5347 10.5572 31.5054C11.7021 33.476 14.2323 34.1478 16.2091 33.0072C16.2346 32.9921 16.2594 32.9762 16.2849 32.9611L16.2825 32.9643C17.8402 32.0219 19.4793 32.9666 19.437 34.7821L19.4386 34.7797C19.4386 34.8131 19.4362 34.8474 19.4362 34.8808C19.4386 37.1579 21.2917 39.002 23.5759 38.9996C25.8601 38.9972 27.71 37.1499 27.7076 34.8728C27.7076 34.8426 27.706 34.8124 27.7052 34.7821L27.7068 34.7845C27.6653 32.9643 29.3092 32.0187 30.8701 32.9643L30.8677 32.9603C30.8965 32.9778 30.9236 32.9953 30.9523 33.012C32.9316 34.1494 35.4601 33.472 36.601 31.499C37.7419 29.526 37.0625 27.0053 35.0833 25.868L35.0849 25.8672Z" fill="#FF931E"/>
</g>
<defs>
<clipPath id="clip0_2410_14022">
<rect width="27.156" height="30" fill="white" transform="translate(10 9)"/>
</clipPath>
</defs>
</svg>
