<svg width="48" height="48" viewBox="0 0 48 48" fill="none" xmlns="http://www.w3.org/2000/svg">
<path d="M0 0H48V48H0V0Z" fill="#FFEEDA"/>
<path d="M48 24C48 10.7452 37.2548 0 24 0C10.7452 0 0 10.7452 0 24C0 37.2548 10.7452 48 24 48C37.2548 48 48 37.2548 48 24Z" fill="#FFEEDA"/>
<path d="M36.4355 28.9942V12.5011C36.4048 11.1203 35.3155 10.0156 33.9347 10.0156H16.7205C13.0076 10.077 10.0159 13.1148 10.0159 16.843C10.0159 18.1011 10.3534 19.1751 10.875 20.1263C11.3046 20.9087 11.995 21.6452 12.6701 22.2129C12.8542 22.3663 12.7622 22.3049 13.3452 22.6731C14.1583 23.1641 15.0789 23.4096 15.0789 23.4096V33.2747C15.0942 33.735 15.1556 34.1953 15.263 34.6095C15.6465 35.9904 16.6131 37.0643 17.9172 37.586C18.4695 37.8008 19.0832 37.9542 19.743 37.9542L33.4898 38.0002C36.2361 38.0002 38.4607 35.7756 38.4607 33.0293C38.4607 31.3569 37.6629 29.8994 36.4355 28.9942Z" fill="#FFEEDA"/>
<path d="M36.758 33.1058C36.6966 34.8702 35.2545 36.2817 33.4901 36.2817L24.0238 36.251C24.7756 35.3765 25.2359 34.2411 25.2359 33.0137C25.2359 31.0653 24.0698 29.7305 24.0698 29.7305H33.4901C35.3005 29.7305 36.758 31.2033 36.758 33.0137V33.1058Z" fill="#EBC28E"/>
<path d="M13.5441 20.7857C12.4548 19.7578 11.6877 18.423 11.6877 16.8274V16.6586C11.7797 13.9583 14.0044 11.7797 16.7046 11.6877H33.9188C34.3638 11.703 34.732 12.0252 34.732 12.4855V27.0454C35.1309 27.1221 35.315 27.1682 35.6986 27.3063C35.9901 27.4137 36.4197 27.6591 36.4197 27.6591V12.4855C36.389 11.1047 35.2997 10 33.9188 10H16.7046C12.9918 10.0614 10 13.0992 10 16.8274C10 18.9907 10.9819 20.8471 12.6082 22.1512C12.7156 22.2433 12.823 22.3507 13.1145 22.3507C13.6208 22.3507 13.9737 21.9517 13.9583 21.5068C13.943 21.1386 13.7896 21.0005 13.5441 20.7857Z" fill="#190602"/>
<path d="M33.4883 28.0272H19.987C19.0818 28.0272 18.3454 28.7789 18.3454 29.6841V31.6173C18.376 32.5071 19.1432 33.2896 20.033 33.2896H21.0303V31.6173H20.033V29.7148C20.033 29.7148 20.2785 29.7148 20.5854 29.7148C22.2884 29.7148 23.5464 31.2951 23.5464 32.9981C23.5464 34.5017 22.181 36.4195 19.8949 36.266C17.8544 36.128 16.7651 34.3176 16.7651 32.9981V16.5357C16.7651 15.7992 16.1667 15.1855 15.415 15.1855H14.0648V16.8732H15.0621V32.9981C15.016 36.2814 17.3941 37.9384 19.8796 37.9384L33.4883 37.9844C36.2346 37.9844 38.4593 35.7597 38.4593 33.0134C38.4593 30.2672 36.2346 28.0272 33.4883 28.0272ZM36.7563 33.1055C36.6949 34.8699 35.2527 36.2814 33.4883 36.2814L24.0221 36.2507C24.7738 35.3762 25.2341 34.2408 25.2341 33.0134C25.2341 31.065 24.0681 29.7302 24.0681 29.7302H33.4883C35.2987 29.7302 36.7563 31.203 36.7563 33.0134V33.1055Z" fill="#190602"/>
<path d="M29.9595 17.1655H19.6801V15.4932H29.9595C30.3737 15.4932 30.6959 15.8307 30.6959 16.2296V16.4291C30.6959 16.8433 30.3584 17.1655 29.9595 17.1655Z" fill="#190602"/>
<path d="M29.9595 25.0971H19.6801V23.4248H29.9595C30.3737 23.4248 30.6959 23.7623 30.6959 24.1612V24.3607C30.6959 24.7596 30.3584 25.0971 29.9595 25.0971Z" fill="#190602"/>
<path d="M31.7396 21.1381H19.6652V19.4658H31.7396C32.1539 19.4658 32.4761 19.8034 32.4761 20.2023V20.4017C32.4914 20.8006 32.1539 21.1381 31.7396 21.1381Z" fill="#190602"/>
</svg>
