<svg width="48" height="48" viewBox="0 0 48 48" fill="none" xmlns="http://www.w3.org/2000/svg">
<g clip-path="url(#clip0_2410_13856)">
<mask id="mask0_2410_13856" style="mask-type:luminance" maskUnits="userSpaceOnUse" x="0" y="0" width="48" height="48">
<path d="M48 0H0V48H48V0Z" fill="white"/>
</mask>
<g mask="url(#mask0_2410_13856)">
<path d="M48 0H0V48H48V0Z" fill="#FE5161"/>
<path d="M24.119 10.2178C15.0092 10.2178 11.4059 15.7849 11.4059 23.9824C11.4059 32.1797 15.0092 38.0198 24.119 38.0198C33.2288 38.0198 36.8316 32.1792 36.8316 23.9824C36.8316 15.7854 33.2288 10.2178 24.119 10.2178ZM24.1202 33.5275C19.9652 33.5275 17.8132 31.0892 17.1637 26.9855C17.1148 26.6761 17.3514 26.395 17.6635 26.395H30.5127C30.8238 26.395 31.0602 26.6744 31.0132 26.9833C30.3813 31.0883 28.2765 33.5275 24.1207 33.5275H24.1202ZM17.6095 21.945C17.302 21.945 17.0671 21.6717 17.1084 21.3653C17.6846 17.0975 19.8395 14.7102 24.1202 14.7102C28.401 14.7102 30.5066 17.0983 31.0657 21.3674C31.1058 21.673 30.8713 21.945 30.5643 21.945H17.6095Z" fill="white"/>
</g>
</g>
<defs>
<clipPath id="clip0_2410_13856">
<rect width="48" height="48" fill="white"/>
</clipPath>
</defs>
</svg>
